# xmcd CD database file
#
# Track frame offsets:
#	150
#	22062
#	38097
#	56378
#	71615
#	90288
#	102448
#	118674
#	137012
#	155702
#
# Disc length: 2335 seconds
#
# Revision: 1
# Processed by: cddbd v1.4PL0 Copyright (c) Steve Scherf et al.
# Submitted via: CDex 1.40Beta9
#
DISCID=81091d0a
DTITLE=Milan Kamnik - Je se kdo srecnejsi kje
DYEAR=2001
DGENRE=Country
TTITLE0=Vode pa ni
TTITLE1=Lokalni Veljak
TTITLE2=Skurne besiede
TTITLE3=Urslji gori
TTITLE4=Slovenec sem
TTITLE5=Gremo na kavo v Portoroz
TTITLE6=Je se kdo srecnejsi kje
TTITLE7=Upanje za Bozic
TTITLE8=Ferderban svet
TTITLE9=Ni mi vseeno
EXTD=YEAR: 2001 ID3G: 2
EXTT0=
EXTT1=
EXTT2=
EXTT3=
EXTT4=
EXTT5=
EXTT6=
EXTT7=
EXTT8=
EXTT9=
PLAYORDER=
